<svg xmlns="http://www.w3.org/2000/svg" width="1119.609" height="699"><circle cx="292.609" cy="213" r="213" fill="#f2f2f2"/><path d="M0 51.142c0 77.498 48.618 140.208 108.701 140.208" fill="#2f2e41"/><g fill="#037afb"><path d="M108.701 191.351c0-78.369 54.255-141.784 121.304-141.784"/><path d="M39.384 58.168c0 73.615 31.003 133.183 69.316 133.183"/></g><path d="M108.701 191.351c0-100.138 62.71-181.168 140.208-181.168" fill="#2f2e41"/><path d="M85.833 192.339s15.416-.475 20.061-3.783 23.713-7.259 24.866-1.953 23.167 26.388 5.763 26.529-40.439-2.711-45.076-5.535-5.613-15.257-5.613-15.257z" fill="#a8a8a8"/><path d="M136.833 211.285c-17.404.14-40.439-2.711-45.076-5.535-3.531-2.151-4.938-9.869-5.409-13.43l-.515.02s.976 12.433 5.613 15.257 27.672 5.676 45.076 5.535c5.024-.041 6.759-1.828 6.664-4.475-.698 1.6-2.614 2.598-6.353 2.628z" opacity=".2"/><ellipse cx="198.609" cy="424.5" rx="187" ry="25.44" fill="#3f3d56"/><ellipse cx="198.609" cy="424.5" rx="157" ry="21.359" opacity=".1"/><g fill="#3f3d56"><ellipse cx="836.609" cy="660.5" rx="283" ry="38.5"/><ellipse cx="310.609" cy="645.5" rx="170" ry="23.127"/></g><path d="M462.609 626c90 23 263-30 282-90m-435-277s130-36 138 80-107 149-17 172m-246.598 26.283s39.072-10.82 41.477 24.044-32.16 44.783-5.109 51.696" fill="none" stroke="#2f2e41" stroke-miterlimit="10" stroke-width="2"/><path d="M778.705 563.24l-7.878 50.295s-38.782 20.603-11.513 21.209 155.733 0 155.733 0 24.845 0-14.543-21.815l-7.878-52.719z" fill="#2f2e41"/><path d="M753.828 634.198c6.193-5.51 16.999-11.252 16.999-11.252l7.878-50.295 113.922.107 7.878 49.582c9.185 5.087 14.875 8.987 18.204 11.978 5.059-1.154 10.587-5.444-18.204-21.389l-7.878-52.719-113.922 3.03-7.878 50.295s-32.588 17.315-16.999 20.663z" opacity=".1"/><rect x="578.433" y="212.689" width="513.253" height="357.52" rx="18.046" fill="#2f2e41"/><path fill="#3f3d56" d="M595.703 231.777h478.713v267.837H595.703z"/><circle cx="835.059" cy="223.293" r="3.03" fill="#f2f2f2"/><path d="M1091.686 520.822v31.341a18.04 18.04 0 0 1-5.285 12.761 18.05 18.05 0 0 1-12.761 5.285H596.479a18.04 18.04 0 0 1-12.761-5.285 18.05 18.05 0 0 1-5.285-12.761v-31.341zM968.978 667.466v6.06h-326.01v-4.848l.449-1.212 8.035-21.815h310.86l6.666 21.815zm125.459-5.932c-.594 2.539-2.836 5.217-7.902 7.75-18.179 9.089-55.143-2.424-55.143-2.424s-28.48-4.848-28.48-17.573a22.84 22.84 0 0 1 2.497-1.485c7.643-4.044 32.984-14.021 77.918.422a18.74 18.74 0 0 1 8.541 5.597c1.821 2.131 3.248 4.835 2.57 7.712z" fill="#2f2e41"/><path d="M1094.437 661.534c-22.251 8.526-42.084 9.162-62.439-4.975-10.265-7.126-19.591-8.89-26.59-8.756 7.643-4.044 32.984-14.021 77.918.422a18.74 18.74 0 0 1 8.541 5.597c1.821 2.131 3.248 4.835 2.57 7.712z" opacity=".1"/><g fill="#f2f2f2"><ellipse cx="1066.538" cy="654.135" rx="7.878" ry="2.424"/><circle cx="835.059" cy="545.667" r="11.513"/></g><path opacity=".1" d="M968.978 667.466v6.06h-326.01v-4.848l.449-1.212h325.561z"/><path fill="#2f2e41" d="M108.609 159h208v242h-208z"/><path d="M87.609 135h250v86h-250zm0 102h250v86h-250zm0 102h250v86h-250z" fill="#3f3d56"/><g fill="#037afb"><path opacity=".4" d="M271.609 150h16v16h-16z"/><path opacity=".8" d="M294.609 150h16v16h-16z"/><path d="M317.609 150h16v16h-16z"/><path opacity=".4" d="M271.609 251h16v16h-16z"/><path opacity=".8" d="M294.609 251h16v16h-16z"/><path d="M317.609 251h16v16h-16z"/><path opacity=".4" d="M271.609 352h16v16h-16z"/><path opacity=".8" d="M294.609 352h16v16h-16z"/><path d="M317.609 352h16v16h-16z"/></g><g fill="#2f2e41"><circle cx="316.609" cy="538" r="79"/><path d="M280.609 600h24v43h-24zm48 0h24v43h-24z"/><ellipse cx="300.609" cy="643.5" rx="20" ry="7.5"/><ellipse cx="348.609" cy="642.5" rx="20" ry="7.5"/></g><circle cx="318.609" cy="518" r="27" fill="#fff"/><circle cx="318.609" cy="518" r="9" fill="#3f3d56"/><path d="M239.976 464.532c-6.379-28.568 14.012-57.434 45.544-64.475s62.265 10.41 68.644 38.978-14.519 39.104-46.051 46.145-61.758 7.92-68.137-20.647z" fill="#037afb"/><g fill="#2f2e41"><ellipse cx="417.215" cy="611.344" rx="39.5" ry="12.4" transform="matrix(.919334 -.393479 .393479 .919334 -238.28665 112.98044)"/><ellipse cx="269.215" cy="664.344" rx="39.5" ry="12.4" transform="matrix(.919334 -.393479 .393479 .919334 -271.07969 59.02084)"/></g><path d="M362.609 561c0 7.732-19.909 23-42 23s-43-14.268-43-22 20.909-6 43-6 42-2.732 42 5z" fill="#fff"/></svg>