<?xml version="1.0" standalone="no"?>
<!DOCTYPE svg PUBLIC "-//W3C//DTD SVG 20010904//EN"
 "http://www.w3.org/TR/2001/REC-SVG-20010904/DTD/svg10.dtd">
<svg version="1.0" xmlns="http://www.w3.org/2000/svg"
 width="512.000000pt" height="512.000000pt" viewBox="0 0 512.000000 512.000000"
 preserveAspectRatio="xMidYMid meet">

<g transform="translate(0.000000,512.000000) scale(0.100000,-0.100000)"
fill="#000000" stroke="none">
<path d="M1190 5109 c-164 -32 -305 -186 -330 -361 -6 -36 -10 -880 -10 -1980
l0 -1918 -32 0 c-118 -1 -280 -105 -338 -220 -44 -87 -50 -124 -50 -347 l0
-213 29 -32 29 -33 1834 -3 c1260 -2 1844 0 1869 8 69 19 74 38 74 270 0 224
-7 268 -56 356 -60 107 -197 199 -313 211 l-56 6 0 428 0 429 48 0 c67 0 118
-17 142 -47 18 -23 20 -40 20 -148 0 -199 21 -274 100 -352 67 -68 119 -88
225 -88 78 0 97 4 140 27 60 31 114 87 146 148 l24 45 3 1554 c2 1525 2 1554
-17 1585 -11 17 -118 129 -239 249 -221 219 -227 224 -292 218 -32 -3 -78 -49
-81 -81 -5 -64 0 -72 188 -262 l187 -188 -182 -183 c-133 -133 -185 -192 -192
-217 -12 -43 -13 -313 0 -398 26 -186 170 -334 354 -364 l66 -11 0 -914 c0
-1006 3 -955 -61 -989 -43 -22 -91 -11 -123 27 -25 29 -26 36 -26 153 0 196
-21 269 -102 353 -59 61 -124 86 -235 91 l-93 4 0 1398 c0 894 -4 1417 -10
1451 -32 169 -170 307 -340 339 -66 12 -2235 12 -2300 -1z m2189 -450 l31 -31
0 -681 c0 -631 -2 -684 -18 -703 -9 -12 -27 -27 -39 -33 -15 -8 -302 -11
-1012 -11 l-991 0 -32 29 -33 29 0 687 0 687 33 29 32 29 999 0 999 0 31 -31z"/>
</g>
</svg>
