
<svg version="1.2" baseProfile="tiny-ps" xmlns="http://www.w3.org/2000/svg" viewBox="0 0 375 375" width="375" height="375">
	<title>Blue &amp; Green Bold Connected N Letter Logo-svg</title>
	<defs>
		<clipPath clipPathUnits="userSpaceOnUse" id="cp1">
			<path d="M11.29 121L166 121L166 335.84L11.29 335.84L11.29 121Z" />
		</clipPath>
		<clipPath clipPathUnits="userSpaceOnUse" id="cp2">
			<path d="M187 38.84L363.71 38.84L363.71 274L187 274L187 38.84Z" />
		</clipPath>
		<clipPath clipPathUnits="userSpaceOnUse" id="cp3">
			<path d="M11.29 38.84L271 38.84L271 298L11.29 298L11.29 38.84Z" />
		</clipPath>
	</defs>
	<style>
		tspan { white-space:pre }
		.shp0 { fill: #010101 } 
		.shp1 { fill: #1096e6 } 
		.shp2 { fill: #3c51c4 } 
	</style>
	<g id="surface1">
		<g id="Clip-Path" clip-path="url(#cp1)">
		</g>
		<path id="Layer" class="shp0" d="M242.87 276.27C242.81 276.33 242.74 276.38 242.68 276.44C242.74 276.38 242.81 276.33 242.87 276.27Z" />
		<path id="Layer" class="shp0" d="M244.43 274.82C244.29 274.95 244.14 275.09 243.99 275.22C244.14 275.09 244.29 274.95 244.43 274.82Z" />
		<path id="Layer" class="shp0" d="M245.93 273.36C245.73 273.56 245.53 273.75 245.32 273.95C245.53 273.75 245.73 273.56 245.93 273.36C245.94 273.35 245.95 273.34 245.96 273.33L245.93 273.36Z" />
		<g id="Clip-Path" clip-path="url(#cp2)">
			<g id="Layer">
				<path id="Layer" class="shp1" d="M339.49 62.93C323.87 47.32 303.1 38.72 281.02 38.72C258.93 38.72 238.16 47.32 222.54 62.93L187.46 98L210.85 121.38L245.94 86.31C255.31 76.94 267.77 71.79 281.02 71.79C294.28 71.79 306.74 76.94 316.11 86.31C325.47 95.68 330.63 108.13 330.63 121.38C330.63 134.63 325.47 147.09 316.1 156.46L269.29 203.25C272.8 228.09 265.03 254.25 245.97 273.33L339.49 179.83C355.11 164.22 363.71 143.46 363.71 121.38C363.71 99.3 355.11 78.54 339.49 62.93Z" />
			</g>
		</g>
		<path id="Layer" class="shp0" d="M245.32 273.95C245.03 274.25 244.73 274.54 244.44 274.82C244.73 274.54 245.03 274.25 245.32 273.95Z" />
		<path id="Layer" class="shp0" d="M244 275.22C243.62 275.57 243.25 275.93 242.87 276.27C243.25 275.93 243.62 275.57 244 275.22Z" />
		<g id="Clip-Path" clip-path="url(#cp3)">
			<g id="Layer">
				<path id="Layer" fill-rule="evenodd" class="shp2" d="M11.2 121.39C11.2 120.68 11.21 119.98 11.22 119.28C11.23 119.17 11.24 119.07 11.24 118.97C11.25 118.36 11.28 117.75 11.3 117.15C11.31 117.13 11.31 117.1 11.31 117.07C12.36 96.62 20.82 77.53 35.42 62.94C50.02 48.35 69.11 39.88 89.58 38.84C89.6 38.83 89.63 38.83 89.65 38.83C90.26 38.8 90.87 38.78 91.48 38.76C91.57 38.75 91.68 38.75 91.78 38.75C92.48 38.73 93.18 38.72 93.89 38.72C94.6 38.72 95.3 38.73 96.01 38.75C96.11 38.75 96.21 38.76 96.31 38.76C96.93 38.78 97.53 38.8 98.14 38.83C98.16 38.84 98.19 38.84 98.21 38.84C118.68 39.88 137.77 48.35 152.37 62.94L187.45 98.01L210.84 121.39L245.93 156.46C259.09 169.61 266.88 186.13 269.29 203.25C272.81 228.1 265.03 254.26 245.97 273.34L245.94 273.36C245.73 273.57 245.53 273.76 245.32 273.96C245.04 274.25 244.73 274.54 244.44 274.83C244.29 274.96 244.14 275.1 244 275.23C243.62 275.58 243.25 275.93 242.87 276.27C242.8 276.34 242.73 276.39 242.68 276.45C227.01 290.51 207.23 297.54 187.45 297.54C180.13 297.54 172.8 296.57 165.69 294.64C165.68 294.66 165.67 294.68 165.66 294.69C154.93 291.78 144.9 286.71 136.09 279.71C136.09 279.7 136.09 279.7 136.09 279.7C134.78 278.66 133.48 277.57 132.21 276.43C132.16 276.37 132.1 276.33 132.05 276.27C131.66 275.92 131.27 275.56 130.88 275.19C130.75 275.07 130.62 274.95 130.49 274.83C130.14 274.49 129.8 274.16 129.46 273.82C129.3 273.66 129.14 273.51 128.99 273.36L44.29 188.68L35.43 179.83C19.81 164.22 11.21 143.46 11.2 121.39ZM44.31 121.39C44.31 134.64 49.47 147.09 58.84 156.46L105.61 203.22L143.54 241.13L152.39 249.99C152.5 250.09 152.61 250.19 152.71 250.29C153.21 250.78 153.71 251.26 154.22 251.72C154.34 251.83 154.48 251.94 154.61 252.05C155.11 252.5 155.61 252.94 156.14 253.37C156.18 253.41 156.23 253.43 156.27 253.47C156.34 253.53 156.41 253.59 156.49 253.64C162.26 258.28 168.92 261.51 176.05 263.18C179.75 264.05 183.57 264.5 187.46 264.5C198.96 264.5 209.84 260.62 218.65 253.48C218.7 253.43 218.74 253.4 218.8 253.36C219.31 252.94 219.8 252.51 220.3 252.07C220.45 251.95 220.59 251.84 220.72 251.71C221.21 251.28 221.68 250.82 222.15 250.36C222.28 250.23 222.42 250.11 222.55 249.98C222.56 249.97 222.56 249.97 222.57 249.96C241.9 230.63 241.89 199.17 222.55 179.84L187.46 144.77L176.6 133.91L164.07 121.38L128.99 86.31C120.83 78.16 110.35 73.2 99.04 72.04C99.02 72.04 98.99 72.04 98.96 72.04C98.24 71.96 97.52 71.92 96.79 71.88C96.67 71.87 96.55 71.85 96.43 71.84C95.59 71.8 94.75 71.78 93.9 71.78C93.05 71.78 92.21 71.8 91.37 71.84C91.25 71.85 91.13 71.87 91.01 71.88C90.28 71.91 89.55 71.96 88.84 72.04C88.82 72.04 88.79 72.04 88.77 72.04C65.49 74.45 46.95 93 44.55 116.25C44.55 116.28 44.54 116.3 44.54 116.32C44.46 117.04 44.42 117.77 44.38 118.49C44.37 118.61 44.35 118.73 44.34 118.85C44.31 119.69 44.29 120.53 44.31 121.39Z" />
			</g>
		</g>
	</g>
</svg>